<svg xmlns="http://www.w3.org/2000/svg" width="64" height="64" viewBox="0 0 64 64">
  <!-- Dark hexagon background -->
  <polygon points="32,2 58,17 58,47 32,62 6,47 6,17" fill="#111" stroke="#333" stroke-width="1.5"/>
  <!-- Valkey logo in white, scaled to fit -->
  <g transform="translate(10,5) scale(0.72)">
    <path fill="#ffffff" fill-rule="evenodd" d="M 13.482285 60.805337 L 1.072337 53.640450 L 1.072337 18.900520 L 31.157999 1.530556 L 61.243660 18.900520 L 61.243660 53.640450 L 31.157999 71.010414 L 20.548372 64.884944 L 20.548372 50.731296 L 20.548372 48.809864 L 14.993765 45.602910 L 14.993765 26.938060 L 31.157998 17.605635 L 47.322232 26.938060 L 47.322232 45.602910 L 34.703495 52.888341 L 34.703495 45.880508 C 39.359237 44.162831 42.114086 39.354893 41.241659 34.469690 C 40.369233 29.584486 36.120492 26.027288 31.157998 26.027288 C 26.195505 26.027288 21.946764 29.584486 21.074338 34.469690 C 20.201911 39.354893 22.956760 44.162831 27.612502 45.880508 L 27.612502 60.093515 L 31.157998 62.140509 L 53.562096 49.205497 L 53.562096 23.335473 L 31.157998 10.400461 L 8.753901 23.335473 L 8.753901 49.205497 L 13.482285 51.935431 L 13.482285 60.805337 Z M 31.157998 31.768045 C 33.644628 31.768045 35.660439 33.783856 35.660439 36.270485 C 35.660439 38.757114 33.644628 40.772925 31.157998 40.772925 C 28.671369 40.772925 26.655558 38.757114 26.655558 36.270485 C 26.655558 33.783856 28.671369 31.768045 31.157998 31.768045 Z" />
  </g>
</svg>
